<!--?xml version="1.0" standalone="no"?-->
              <svg id="sw-js-blob-svg" viewBox="0 0 100 100" xmlns="http://www.w3.org/2000/svg" version="1.1">
                    <defs> 
                        <linearGradient id="sw-gradient" x1="0" x2="1" y1="1" y2="0">
                            <stop id="stop1" stop-color="rgba(18, 18, 18, 1)" offset="0%"></stop>
                            <stop id="stop2" stop-color="rgba(31, 27, 36, 1)" offset="100%"></stop>
                        </linearGradient>
                    </defs>
                <path fill="url(#sw-gradient)" d="M16.9,-29.4C23.9,-25.4,32.7,-24.7,36.6,-20.3C40.5,-16,39.5,-8,39.4,0C39.4,7.9,40.2,15.8,36.7,20.8C33.1,25.7,25.1,27.7,18.3,30.9C11.4,34.2,5.7,38.7,0.7,37.4C-4.2,36.2,-8.5,29.1,-15,25.6C-21.6,22.2,-30.5,22.5,-34.6,18.8C-38.7,15.2,-38,7.6,-36.1,1.1C-34.2,-5.4,-31.1,-10.8,-28,-16.2C-24.9,-21.6,-21.8,-27,-17.1,-32.4C-12.5,-37.7,-6.2,-43.1,-0.6,-42C5,-40.9,10,-33.5,16.9,-29.4Z" width="100%" height="100%" transform="translate(50 50)" stroke-width="0" style="transition: all 0.3s ease 0s;" stroke="url(#sw-gradient)"></path>
              </svg>